<svg width="86" height="86" viewBox="0 0 86 86" fill="none" xmlns="http://www.w3.org/2000/svg">
<rect width="86" height="86" rx="16" fill="#E55807"/>
<path d="M49.6001 34.9V43.6H57.5301C58.1401 43.6 58.4451 44.2 58.4451 44.8L57.2251 50.5C57.2251 50.8 56.6151 51.1 56.3101 51.1H49.6001V73H40.4501V51.4H35.2651C34.6551 51.4 34.3501 51.1 34.3501 50.5V44.8C34.3501 44.2 34.6551 43.9 35.2651 43.9H40.4501V34C40.4501 28.9 44.4151 25 49.6001 25H57.8351C58.4451 25 58.7501 25.3 58.7501 25.9V33.1C58.7501 33.7 58.4451 34 57.8351 34H50.5151C49.9051 34 49.6001 34.3 49.6001 34.9Z" stroke="#ECF8F9" stroke-width="4.734" stroke-miterlimit="10" stroke-linecap="round"/>
<path d="M52.65 73H34.35C19.1 73 13 67 13 52V34C13 19 19.1 13 34.35 13H52.65C67.9 13 74 19 74 34V52C74 67 67.9 73 52.65 73Z" stroke="#ECF8F9" stroke-width="4.734" stroke-linecap="round" stroke-linejoin="round"/>
</svg>
