<svg width="86" height="86" viewBox="0 0 86 86" fill="none" xmlns="http://www.w3.org/2000/svg">
<rect width="86" height="86" rx="16" fill="#E55807"/>
<path d="M66.4866 37.5312C66.8186 39.3031 67 41.1582 67 43.096C67 58.2342 56.8533 69 41.5311 69C26.873 69 15 57.141 15 42.4999C15 27.859 26.873 16 41.5311 16C48.6951 16 54.6801 18.6332 59.2741 22.9064L51.7946 30.3765V30.3594C49.0093 27.7092 45.4775 26.3514 41.5311 26.3514C32.7763 26.3514 25.6625 33.7382 25.6625 42.4838C25.6625 51.2273 32.7762 58.6321 41.5311 58.6321C49.4743 58.6321 54.8793 54.0935 55.9919 47.8665H41.5311V37.5312H66.4866Z" fill="#ECF8F9"/>
</svg>
