<svg width="86" height="86" viewBox="0 0 86 86" fill="none" xmlns="http://www.w3.org/2000/svg">
<rect width="86" height="86" rx="16" fill="#E55807"/>
<path fill-rule="evenodd" clip-rule="evenodd" d="M29.5485 10.1894C32.9149 10.0351 33.988 10 42.56 10C51.1337 10 52.205 10.0368 55.5696 10.1894C58.9307 10.3419 61.226 10.8767 63.2335 11.6569C65.3391 12.4497 67.2465 13.6918 68.8231 15.2968C70.4283 16.8732 71.6707 18.7807 72.4631 20.8864C73.2432 22.894 73.7763 25.1891 73.9306 28.5485C74.085 31.9149 74.12 32.988 74.12 41.56C74.12 50.132 74.0833 51.205 73.9306 54.5716C73.778 57.9307 73.2432 60.226 72.4631 62.2335C71.6566 64.3079 70.5764 66.0698 68.8231 67.8231C67.2468 69.4283 65.3391 70.6707 63.2335 71.4631C61.226 72.2432 58.9307 72.7763 55.5716 72.9306C52.205 73.085 51.132 73.12 42.56 73.12C33.988 73.12 32.9149 73.0833 29.5485 72.9306C26.1891 72.778 23.894 72.2432 21.8864 71.4631C19.8122 70.6566 18.0502 69.5764 16.2968 67.8231C14.6915 66.2468 13.4493 64.3391 12.6569 62.2335C11.8767 60.226 11.3437 57.9307 11.1894 54.5716C11.0351 51.205 11 50.1337 11 41.56C11 32.9862 11.0368 31.9149 11.1894 28.5503C11.3419 25.1891 11.8767 22.894 12.6569 20.8864C13.4497 18.7809 14.6918 16.8734 16.2968 15.2968C17.8732 13.6915 19.7807 12.4493 21.8864 11.6569C23.894 10.8767 26.1891 10.3437 29.5485 10.1894ZM55.3137 15.8702C51.9858 15.7194 50.9865 15.686 42.56 15.686C34.1335 15.686 33.1341 15.7194 29.8063 15.8702C26.7292 16.0104 25.0582 16.5241 23.9466 16.9572C22.4738 17.5288 21.4218 18.2126 20.3172 19.3172C19.2144 20.4218 18.5288 21.4738 17.9572 22.9466C17.5241 24.0582 17.0104 25.7292 16.8702 28.8063C16.7194 32.1341 16.686 33.1335 16.686 41.56C16.686 49.9865 16.7194 50.9858 16.8702 54.3137C17.0104 57.3908 17.5241 59.0617 17.9572 60.1735C18.4628 61.5444 19.2693 62.7844 20.3172 63.8029C21.3354 64.8507 22.5757 65.6572 23.9466 66.1627C25.0582 66.596 26.7292 67.1095 29.8063 67.2498C33.1341 67.4008 34.1317 67.434 42.56 67.434C50.9882 67.434 51.9858 67.4008 55.3137 67.2498C58.3908 67.1095 60.0617 66.596 61.1735 66.1627C62.6462 65.5912 63.6983 64.9075 64.8029 63.8029C65.8507 62.7847 66.6572 61.5444 67.1627 60.1735C67.596 59.0617 68.1095 57.3908 68.2498 54.3137C68.4008 50.9858 68.434 49.9865 68.434 41.56C68.434 33.1335 68.4008 32.1341 68.2498 28.8063C68.1095 25.7292 67.596 24.0582 67.1627 22.9466C66.5912 21.4738 65.9075 20.4218 64.8029 19.3172C63.6983 18.2144 62.6462 17.5288 61.1735 16.9572C60.0617 16.5241 58.3908 16.0104 55.3137 15.8702ZM38.5304 51.2888C39.808 51.8181 41.1771 52.0904 42.56 52.0904C45.3531 52.0904 48.0314 50.9809 50.0061 49.0061C51.9812 47.0314 53.0907 44.3528 53.0907 41.56C53.0907 38.7672 51.9812 36.0886 50.0061 34.1138C48.0314 32.1389 45.3531 31.0295 42.56 31.0295C41.1771 31.0295 39.808 31.3019 38.5304 31.8311C37.2525 32.3603 36.0917 33.1359 35.1139 34.1138C34.136 35.0916 33.3603 36.2525 32.8311 37.5301C32.3019 38.8077 32.0296 40.1771 32.0296 41.56C32.0296 42.9429 32.3019 44.3123 32.8311 45.5899C33.3603 46.8675 34.136 48.0284 35.1139 49.0061C36.0917 49.9839 37.2525 50.7597 38.5304 51.2888ZM31.0895 30.0894C34.1317 27.0472 38.2578 25.3381 42.56 25.3381C46.8625 25.3381 50.9885 27.0472 54.0306 30.0894C57.0727 33.1316 58.7818 37.2578 58.7818 41.56C58.7818 45.8622 57.0727 49.9882 54.0306 53.0306C50.9885 56.0727 46.8625 57.7818 42.56 57.7818C38.2578 57.7818 34.1317 56.0727 31.0895 53.0306C28.0473 49.9882 26.3382 45.8622 26.3382 41.56C26.3382 37.2578 28.0473 33.1316 31.0895 30.0894ZM62.3788 27.755C63.0978 27.0359 63.5018 26.0606 63.5018 25.0436C63.5018 24.0266 63.0978 23.0513 62.3788 22.3322C61.6595 21.613 60.6843 21.209 59.6672 21.209C58.6504 21.209 57.6749 21.613 56.9559 22.3322C56.2367 23.0513 55.8327 24.0266 55.8327 25.0436C55.8327 26.0606 56.2367 27.0359 56.9559 27.755C57.6749 28.4741 58.6504 28.8781 59.6672 28.8781C60.6843 28.8781 61.6595 28.4741 62.3788 27.755Z" fill="#ECF8F9"/>
</svg>
