<svg width="77" height="81" viewBox="0 0 77 81" fill="none" xmlns="http://www.w3.org/2000/svg">
<path d="M71.2427 40.5389C71.2378 44.2952 70.0139 47.9557 67.7425 51.0067C65.4712 54.0577 62.2665 56.3461 58.5781 57.5508C54.8897 58.7556 50.9027 58.8161 47.1766 57.724C43.4505 56.6319 40.1723 54.442 37.802 51.4615C34.235 57.6314 27.7548 61.7443 20.364 61.7357C9.12871 61.7225 0.0336163 52.1956 0.047349 40.4556C0.0610816 28.7156 9.17844 19.2099 20.4137 19.2231C27.8079 19.2317 34.2751 23.363 37.831 29.5348C40.2089 26.5609 43.4923 24.3798 47.2206 23.2973C50.949 22.2149 54.9352 22.2854 58.6201 23.499C62.3049 24.7126 65.5036 27.0084 67.7674 30.0644C70.0312 33.1203 71.2464 36.7831 71.2427 40.5389ZM33.9499 40.4952C33.9595 32.2543 27.7697 25.7721 20.4061 25.7635C13.0425 25.7549 6.8375 32.2226 6.82786 40.4635C6.81822 48.7044 13.008 55.1867 20.3717 55.1953C27.7353 55.2039 33.9403 48.7361 33.9499 40.4952ZM64.4622 40.5309C64.4658 37.4953 63.219 34.5826 60.9962 32.4335C58.7735 30.2844 55.7567 29.075 52.6097 29.0713C49.4627 29.0677 46.4431 30.27 44.2153 32.4139C41.9875 34.5578 40.734 37.4676 40.7304 40.5032C40.7269 43.5388 41.9736 46.4515 44.1964 48.6006C46.4192 50.7497 49.4359 51.9591 52.5829 51.9627C55.73 51.9664 58.7495 50.7641 60.9773 48.6202C63.2051 46.4763 64.4587 43.5665 64.4622 40.5309Z" fill="#E55807"/>
</svg>
