<svg width="47" height="31" viewBox="0 0 47 31" fill="none" xmlns="http://www.w3.org/2000/svg">
<path d="M39.5511 22.5C41.6222 22.5 43.3011 20.8211 43.3011 18.75C43.3011 16.6789 41.6222 15 39.5511 15C37.48 15 35.8011 16.6789 35.8011 18.75C35.8011 20.8211 37.48 22.5 39.5511 22.5Z" stroke="black"/>
<path d="M43.301 24H43.5648C44.6995 24 45.6566 24.8449 45.7974 25.9709L46.0903 28.3139C46.2022 29.2092 45.5041 30 44.6018 30H34.5002C33.598 30 32.8999 29.2092 33.0118 28.3139L33.3047 25.9709C33.4454 24.8449 34.4026 24 35.5373 24H35.801" stroke="black" stroke-linecap="round" stroke-linejoin="round"/>
<path d="M23.5511 8.5C25.6222 8.5 27.3011 6.82107 27.3011 4.75C27.3011 2.67893 25.6222 1 23.5511 1C21.48 1 19.8011 2.67893 19.8011 4.75C19.8011 6.82107 21.48 8.5 23.5511 8.5Z" stroke="black"/>
<path d="M27.301 10H27.5648C28.6995 10 29.6566 10.8449 29.7974 11.9709L30.0903 14.3139C30.2022 15.2092 29.5041 16 28.6018 16H18.5002C17.598 16 16.8999 15.2092 17.0118 14.3139L17.3047 11.9709C17.4454 10.8449 18.4026 10 19.5373 10H19.801" stroke="black" stroke-linecap="round" stroke-linejoin="round"/>
<path d="M7.55109 22.5C9.62215 22.5 11.3011 20.8211 11.3011 18.75C11.3011 16.6789 9.62215 15 7.55109 15C5.48002 15 3.80109 16.6789 3.80109 18.75C3.80109 20.8211 5.48002 22.5 7.55109 22.5Z" stroke="black"/>
<path d="M11.301 24H11.5648C12.6995 24 13.6566 24.8449 13.7974 25.9709L14.0903 28.3139C14.2022 29.2092 13.5041 30 12.6018 30H2.50022C1.59797 30 0.899896 29.2092 1.0118 28.3139L1.30468 25.9709C1.44542 24.8449 2.40258 24 3.53731 24H3.80105" stroke="black" stroke-linecap="round" stroke-linejoin="round"/>
</svg>
