<svg width="30" height="34" viewBox="0 0 30 34" fill="none" xmlns="http://www.w3.org/2000/svg">
<path d="M13.75 3.58002C19.96 3.58002 25 9.02322 25 15.73C25 22.4368 19.96 27.88 13.75 27.88C7.54 27.88 2.5 22.4368 2.5 15.73C2.5 9.02322 7.54 3.58002 13.75 3.58002ZM13.75 25.18C18.5837 25.18 22.5 20.9505 22.5 15.73C22.5 10.5082 18.5837 6.28002 13.75 6.28002C8.915 6.28002 5 10.5082 5 15.73C5 20.9505 8.915 25.18 13.75 25.18ZM24.3563 25.2759L27.8925 29.0937L26.1238 31.0039L22.5887 27.1848L24.3563 25.2759Z" fill="#ECF8F9"/>
</svg>
